<?xml version="1.0" encoding="UTF-8"?>
<svg xmlns="http://www.w3.org/2000/svg" xmlns:xlink="http://www.w3.org/1999/xlink" width="55.000mm" height="100.000mm" viewBox="2.500000 -103.000008 55.000000 100.000008">
    <path transform="matrix(1,0,0,-1,-51.747498,-140.937714)" style="stroke:#000000;stroke-width:0.05mm;fill:none" d="M95.409294,-105.151314L95.905296,-104.809013"/>
    <path transform="matrix(1,0,0,-1,-51.747498,-140.937714)" style="stroke:#000000;stroke-width:0.05mm;fill:none" d="M106.1175,-127.2285L105.893501,-126.801613"/>
    <path transform="matrix(1,0,0,-1,-51.747498,-140.937714)" style="stroke:#000000;stroke-width:0.05mm;fill:none" d="M91.909996,-102.051208L91.765701,-102.636414"/>
    <path transform="matrix(1,0,0,-1,-51.747498,-140.937714)" style="stroke:#000000;stroke-width:0.05mm;fill:none" d="M106.1175,-48.646908L106.232887,-48.178806"/>
    <path transform="matrix(1,0,0,-1,-51.747498,-140.937714)" style="stroke:#000000;stroke-width:0.05mm;fill:none" d="M106.247498,-134.937714L106.247498,-137.937714"/>
    <path transform="matrix(1,0,0,-1,-51.747498,-140.937714)" style="stroke:#000000;stroke-width:0.05mm;fill:none" d="M105.5737,-129.434708L105.893501,-129.073807"/>
    <path transform="matrix(1,0,0,-1,-51.747498,-140.937714)" style="stroke:#000000;stroke-width:0.05mm;fill:none" d="M102.2621,-127.696609L102.2621,-128.178802"/>
    <path transform="matrix(1,0,0,-1,-51.747498,-140.937714)" style="stroke:#000000;stroke-width:0.05mm;fill:none" d="M102.921303,-129.434708L103.3181,-129.708603"/>
    <path transform="matrix(1,0,0,-1,-51.747498,-140.937714)" style="stroke:#000000;stroke-width:0.05mm;fill:none" d="M104.726097,-129.879608L105.176903,-129.708603"/>
    <path transform="matrix(1,0,0,-1,-51.747498,-140.937714)" style="stroke:#000000;stroke-width:0.05mm;fill:none" d="M102.247498,-137.937714L99.247498,-137.937714"/>
    <path transform="matrix(1,0,0,-1,-51.747498,-140.937714)" style="stroke:#000000;stroke-width:0.05mm;fill:none" d="M92.189995,-104.35791L92.589699,-104.809013"/>
    <path transform="matrix(1,0,0,-1,-51.747498,-140.937714)" style="stroke:#000000;stroke-width:0.05mm;fill:none" d="M63.247498,-101.437714L63.247498,-104.437714"/>
    <path transform="matrix(1,0,0,-1,-51.747498,-140.937714)" style="stroke:#000000;stroke-width:0.05mm;fill:none" d="M59.247498,-101.437714L63.247498,-101.437714"/>
    <path transform="matrix(1,0,0,-1,-51.747498,-140.937714)" style="stroke:#000000;stroke-width:0.05mm;fill:none" d="M105.893501,-46.801605L105.5737,-46.440704"/>
    <path transform="matrix(1,0,0,-1,-51.747498,-140.937714)" style="stroke:#000000;stroke-width:0.05mm;fill:none" d="M59.247498,-101.437714L59.247498,-104.437714"/>
    <path transform="matrix(1,0,0,-1,-51.747498,-140.937714)" style="stroke:#000000;stroke-width:0.05mm;fill:none" d="M54.247498,-107.937714L54.247498,-97.937706"/>
    <path transform="matrix(1,0,0,-1,-51.747498,-140.937714)" style="stroke:#000000;stroke-width:0.05mm;fill:none" d="M103.3181,-46.166805L102.921303,-46.440704"/>
    <path transform="matrix(1,0,0,-1,-51.747498,-140.937714)" style="stroke:#000000;stroke-width:0.05mm;fill:none" d="M105.176903,-126.166809L104.726097,-125.995796"/>
    <path transform="matrix(1,0,0,-1,-51.747498,-140.937714)" style="stroke:#000000;stroke-width:0.05mm;fill:none" d="M102.2621,-47.696606L102.2621,-48.178806"/>
    <path transform="matrix(1,0,0,-1,-51.747498,-140.937714)" style="stroke:#000000;stroke-width:0.05mm;fill:none" d="M102.921303,-126.440697L102.601501,-126.801613"/>
    <path transform="matrix(1,0,0,-1,-51.747498,-140.937714)" style="stroke:#000000;stroke-width:0.05mm;fill:none" d="M102.2621,-128.178802L102.377502,-128.646912"/>
    <path transform="matrix(1,0,0,-1,-51.747498,-140.937714)" style="stroke:#000000;stroke-width:0.05mm;fill:none" d="M103.3181,-129.708603L103.768898,-129.879608"/>
    <path transform="matrix(1,0,0,-1,-51.747498,-140.937714)" style="stroke:#000000;stroke-width:0.05mm;fill:none" d="M99.247498,-98.070305L99.247498,-59.057709"/>
    <path transform="matrix(1,0,0,-1,-51.747498,-140.937714)" style="stroke:#000000;stroke-width:0.05mm;fill:none" d="M103.768898,-45.995804L103.3181,-46.166805"/>
    <path transform="matrix(1,0,0,-1,-51.747498,-140.937714)" style="stroke:#000000;stroke-width:0.05mm;fill:none" d="M104.726097,-45.995804L104.247498,-45.937706"/>
    <path transform="matrix(1,0,0,-1,-51.747498,-140.937714)" style="stroke:#000000;stroke-width:0.05mm;fill:none" d="M105.5737,-46.440704L105.176903,-46.166805"/>
    <path transform="matrix(1,0,0,-1,-51.747498,-140.937714)" style="stroke:#000000;stroke-width:0.05mm;fill:none" d="M109.247498,-37.937706L106.247498,-37.937706"/>
    <path transform="matrix(1,0,0,-1,-51.747498,-140.937714)" style="stroke:#000000;stroke-width:0.05mm;fill:none" d="M94.845795,-105.365097L95.409294,-105.151314"/>
    <path transform="matrix(1,0,0,-1,-51.747498,-140.937714)" style="stroke:#000000;stroke-width:0.05mm;fill:none" d="M104.247498,-45.937706L103.768898,-45.995804"/>
    <path transform="matrix(1,0,0,-1,-51.747498,-140.937714)" style="stroke:#000000;stroke-width:0.05mm;fill:none" d="M63.494896,-107.937714L54.247498,-107.937714"/>
    <path transform="matrix(1,0,0,-1,-51.747498,-140.937714)" style="stroke:#000000;stroke-width:0.05mm;fill:none" d="M105.176903,-46.166805L104.726097,-45.995804"/>
    <path transform="matrix(1,0,0,-1,-51.747498,-140.937714)" style="stroke:#000000;stroke-width:0.05mm;fill:none" d="M99.247498,-137.937714L63.494896,-107.937714"/>
    <path transform="matrix(1,0,0,-1,-51.747498,-140.937714)" style="stroke:#000000;stroke-width:0.05mm;fill:none" d="M93.085701,-100.724113L92.589699,-101.066406"/>
    <path transform="matrix(1,0,0,-1,-51.747498,-140.937714)" style="stroke:#000000;stroke-width:0.05mm;fill:none" d="M94.247498,-105.437714L94.845795,-105.365097"/>
    <path transform="matrix(1,0,0,-1,-51.747498,-140.937714)" style="stroke:#000000;stroke-width:0.05mm;fill:none" d="M99.247498,-37.937706L99.247498,-51.057705"/>
    <path transform="matrix(1,0,0,-1,-51.747498,-140.937714)" style="stroke:#000000;stroke-width:0.05mm;fill:none" d="M102.377502,-127.2285L102.2621,-127.696609"/>
    <path transform="matrix(1,0,0,-1,-51.747498,-140.937714)" style="stroke:#000000;stroke-width:0.05mm;fill:none" d="M96.729294,-102.636414L96.584999,-102.051208"/>
    <path transform="matrix(1,0,0,-1,-51.747498,-140.937714)" style="stroke:#000000;stroke-width:0.05mm;fill:none" d="M104.247498,-129.937714L104.726097,-129.879608"/>
    <path transform="matrix(1,0,0,-1,-51.747498,-140.937714)" style="stroke:#000000;stroke-width:0.05mm;fill:none" d="M104.726097,-125.995796L104.247498,-125.937714"/>
    <path transform="matrix(1,0,0,-1,-51.747498,-140.937714)" style="stroke:#000000;stroke-width:0.05mm;fill:none" d="M102.921303,-46.440704L102.601501,-46.801605"/>
    <path transform="matrix(1,0,0,-1,-51.747498,-140.937714)" style="stroke:#000000;stroke-width:0.05mm;fill:none" d="M99.247498,-98.070305L69.494896,-98.070305"/>
    <path transform="matrix(1,0,0,-1,-51.747498,-140.937714)" style="stroke:#000000;stroke-width:0.05mm;fill:none" d="M96.305,-101.517509L95.905296,-101.066406"/>
    <path transform="matrix(1,0,0,-1,-51.747498,-140.937714)" style="stroke:#000000;stroke-width:0.05mm;fill:none" d="M93.6492,-100.510307L93.085701,-100.724113"/>
    <path transform="matrix(1,0,0,-1,-51.747498,-140.937714)" style="stroke:#000000;stroke-width:0.05mm;fill:none" d="M102.601501,-126.801613L102.377502,-127.2285"/>
    <path transform="matrix(1,0,0,-1,-51.747498,-140.937714)" style="stroke:#000000;stroke-width:0.05mm;fill:none" d="M103.3181,-126.166809L102.921303,-126.440697"/>
    <path transform="matrix(1,0,0,-1,-51.747498,-140.937714)" style="stroke:#000000;stroke-width:0.05mm;fill:none" d="M102.247498,-37.937706L99.247498,-37.937706"/>
    <path transform="matrix(1,0,0,-1,-51.747498,-140.937714)" style="stroke:#000000;stroke-width:0.05mm;fill:none" d="M103.768898,-129.879608L104.247498,-129.937714"/>
    <path transform="matrix(1,0,0,-1,-51.747498,-140.937714)" style="stroke:#000000;stroke-width:0.05mm;fill:none" d="M96.729294,-103.239014L96.729294,-102.636414"/>
    <path transform="matrix(1,0,0,-1,-51.747498,-140.937714)" style="stroke:#000000;stroke-width:0.05mm;fill:none" d="M69.494896,-98.070305L99.247498,-59.057709"/>
    <path transform="matrix(1,0,0,-1,-51.747498,-140.937714)" style="stroke:#000000;stroke-width:0.05mm;fill:none" d="M96.584999,-102.051208L96.305,-101.517509"/>
    <path transform="matrix(1,0,0,-1,-51.747498,-140.937714)" style="stroke:#000000;stroke-width:0.05mm;fill:none" d="M92.189995,-101.517509L91.909996,-102.051208"/>
    <path transform="matrix(1,0,0,-1,-51.747498,-140.937714)" style="stroke:#000000;stroke-width:0.05mm;fill:none" d="M103.768898,-125.995796L103.3181,-126.166809"/>
    <path transform="matrix(1,0,0,-1,-51.747498,-140.937714)" style="stroke:#000000;stroke-width:0.05mm;fill:none" d="M54.247498,-97.937706L63.494896,-97.937706"/>
    <path transform="matrix(1,0,0,-1,-51.747498,-140.937714)" style="stroke:#000000;stroke-width:0.05mm;fill:none" d="M103.3181,-49.708607L103.768898,-49.879604"/>
    <path transform="matrix(1,0,0,-1,-51.747498,-140.937714)" style="stroke:#000000;stroke-width:0.05mm;fill:none" d="M59.247498,-104.437714L63.247498,-104.437714"/>
    <path transform="matrix(1,0,0,-1,-51.747498,-140.937714)" style="stroke:#000000;stroke-width:0.05mm;fill:none" d="M95.409294,-100.724113L94.845795,-100.510307"/>
    <path transform="matrix(1,0,0,-1,-51.747498,-140.937714)" style="stroke:#000000;stroke-width:0.05mm;fill:none" d="M92.589699,-101.066406L92.189995,-101.517509"/>
    <path transform="matrix(1,0,0,-1,-51.747498,-140.937714)" style="stroke:#000000;stroke-width:0.05mm;fill:none" d="M102.377502,-47.228504L102.2621,-47.696606"/>
    <path transform="matrix(1,0,0,-1,-51.747498,-140.937714)" style="stroke:#000000;stroke-width:0.05mm;fill:none" d="M99.247498,-51.057705L63.494896,-97.937706"/>
    <path transform="matrix(1,0,0,-1,-51.747498,-140.937714)" style="stroke:#000000;stroke-width:0.05mm;fill:none" d="M102.921303,-49.434704L103.3181,-49.708607"/>
    <path transform="matrix(1,0,0,-1,-51.747498,-140.937714)" style="stroke:#000000;stroke-width:0.05mm;fill:none" d="M95.905296,-101.066406L95.409294,-100.724113"/>
    <path transform="matrix(1,0,0,-1,-51.747498,-140.937714)" style="stroke:#000000;stroke-width:0.05mm;fill:none" d="M102.601501,-46.801605L102.377502,-47.228504"/>
    <path transform="matrix(1,0,0,-1,-51.747498,-140.937714)" style="stroke:#000000;stroke-width:0.05mm;fill:none" d="M106.232887,-48.178806L106.232887,-47.696606"/>
    <path transform="matrix(1,0,0,-1,-51.747498,-140.937714)" style="stroke:#000000;stroke-width:0.05mm;fill:none" d="M103.768898,-49.879604L104.247498,-49.937706"/>
    <path transform="matrix(1,0,0,-1,-51.747498,-140.937714)" style="stroke:#000000;stroke-width:0.05mm;fill:none" d="M106.1175,-47.228504L105.893501,-46.801605"/>
    <path transform="matrix(1,0,0,-1,-51.747498,-140.937714)" style="stroke:#000000;stroke-width:0.05mm;fill:none" d="M106.247498,-40.937706L102.247498,-40.937706"/>
    <path transform="matrix(1,0,0,-1,-51.747498,-140.937714)" style="stroke:#000000;stroke-width:0.05mm;fill:none" d="M96.584999,-103.824203L96.729294,-103.239014"/>
    <path transform="matrix(1,0,0,-1,-51.747498,-140.937714)" style="stroke:#000000;stroke-width:0.05mm;fill:none" d="M104.247498,-125.937714L103.768898,-125.995796"/>
    <path transform="matrix(1,0,0,-1,-51.747498,-140.937714)" style="stroke:#000000;stroke-width:0.05mm;fill:none" d="M106.232887,-47.696606L106.1175,-47.228504"/>
    <path transform="matrix(1,0,0,-1,-51.747498,-140.937714)" style="stroke:#000000;stroke-width:0.05mm;fill:none" d="M106.247498,-37.937706L106.247498,-40.937706"/>
    <path transform="matrix(1,0,0,-1,-51.747498,-140.937714)" style="stroke:#000000;stroke-width:0.05mm;fill:none" d="M96.305,-104.35791L96.584999,-103.824203"/>
    <path transform="matrix(1,0,0,-1,-51.747498,-140.937714)" style="stroke:#000000;stroke-width:0.05mm;fill:none" d="M94.845795,-100.510307L94.247498,-100.437714"/>
    <path transform="matrix(1,0,0,-1,-51.747498,-140.937714)" style="stroke:#000000;stroke-width:0.05mm;fill:none" d="M109.247498,-137.937714L109.247498,-37.937706"/>
    <path transform="matrix(1,0,0,-1,-51.747498,-140.937714)" style="stroke:#000000;stroke-width:0.05mm;fill:none" d="M91.909996,-103.824203L92.189995,-104.35791"/>
    <path transform="matrix(1,0,0,-1,-51.747498,-140.937714)" style="stroke:#000000;stroke-width:0.05mm;fill:none" d="M102.247498,-37.937706L102.247498,-40.937706"/>
    <path transform="matrix(1,0,0,-1,-51.747498,-140.937714)" style="stroke:#000000;stroke-width:0.05mm;fill:none" d="M104.247498,-49.937706L104.726097,-49.879604"/>
    <path transform="matrix(1,0,0,-1,-51.747498,-140.937714)" style="stroke:#000000;stroke-width:0.05mm;fill:none" d="M102.2621,-48.178806L102.377502,-48.646908"/>
    <path transform="matrix(1,0,0,-1,-51.747498,-140.937714)" style="stroke:#000000;stroke-width:0.05mm;fill:none" d="M105.5737,-126.440697L105.176903,-126.166809"/>
    <path transform="matrix(1,0,0,-1,-51.747498,-140.937714)" style="stroke:#000000;stroke-width:0.05mm;fill:none" d="M91.765701,-103.239014L91.909996,-103.824203"/>
    <path transform="matrix(1,0,0,-1,-51.747498,-140.937714)" style="stroke:#000000;stroke-width:0.05mm;fill:none" d="M106.1175,-128.646912L106.232887,-128.178802"/>
    <path transform="matrix(1,0,0,-1,-51.747498,-140.937714)" style="stroke:#000000;stroke-width:0.05mm;fill:none" d="M106.247498,-134.937714L102.247498,-134.937714"/>
    <path transform="matrix(1,0,0,-1,-51.747498,-140.937714)" style="stroke:#000000;stroke-width:0.05mm;fill:none" d="M93.085701,-105.151314L93.6492,-105.365097"/>
    <path transform="matrix(1,0,0,-1,-51.747498,-140.937714)" style="stroke:#000000;stroke-width:0.05mm;fill:none" d="M99.247498,-107.937714L99.247498,-129.937714"/>
    <path transform="matrix(1,0,0,-1,-51.747498,-140.937714)" style="stroke:#000000;stroke-width:0.05mm;fill:none" d="M102.601501,-49.073803L102.921303,-49.434704"/>
    <path transform="matrix(1,0,0,-1,-51.747498,-140.937714)" style="stroke:#000000;stroke-width:0.05mm;fill:none" d="M102.247498,-134.937714L102.247498,-137.937714"/>
    <path transform="matrix(1,0,0,-1,-51.747498,-140.937714)" style="stroke:#000000;stroke-width:0.05mm;fill:none" d="M92.589699,-104.809013L93.085701,-105.151314"/>
    <path transform="matrix(1,0,0,-1,-51.747498,-140.937714)" style="stroke:#000000;stroke-width:0.05mm;fill:none" d="M73.028915,-107.937714L99.247498,-107.937714"/>
    <path transform="matrix(1,0,0,-1,-51.747498,-140.937714)" style="stroke:#000000;stroke-width:0.05mm;fill:none" d="M102.377502,-48.646908L102.601501,-49.073803"/>
    <path transform="matrix(1,0,0,-1,-51.747498,-140.937714)" style="stroke:#000000;stroke-width:0.05mm;fill:none" d="M106.232887,-127.696609L106.1175,-127.2285"/>
    <path transform="matrix(1,0,0,-1,-51.747498,-140.937714)" style="stroke:#000000;stroke-width:0.05mm;fill:none" d="M105.893501,-49.073803L106.1175,-48.646908"/>
    <path transform="matrix(1,0,0,-1,-51.747498,-140.937714)" style="stroke:#000000;stroke-width:0.05mm;fill:none" d="M105.176903,-129.708603L105.5737,-129.434708"/>
    <path transform="matrix(1,0,0,-1,-51.747498,-140.937714)" style="stroke:#000000;stroke-width:0.05mm;fill:none" d="M105.176903,-49.708607L105.5737,-49.434704"/>
    <path transform="matrix(1,0,0,-1,-51.747498,-140.937714)" style="stroke:#000000;stroke-width:0.05mm;fill:none" d="M94.247498,-100.437714L93.6492,-100.510307"/>
    <path transform="matrix(1,0,0,-1,-51.747498,-140.937714)" style="stroke:#000000;stroke-width:0.05mm;fill:none" d="M105.5737,-49.434704L105.893501,-49.073803"/>
    <path transform="matrix(1,0,0,-1,-51.747498,-140.937714)" style="stroke:#000000;stroke-width:0.05mm;fill:none" d="M106.232887,-128.178802L106.232887,-127.696609"/>
    <path transform="matrix(1,0,0,-1,-51.747498,-140.937714)" style="stroke:#000000;stroke-width:0.05mm;fill:none" d="M102.601501,-129.073807L102.921303,-129.434708"/>
    <path transform="matrix(1,0,0,-1,-51.747498,-140.937714)" style="stroke:#000000;stroke-width:0.05mm;fill:none" d="M109.247498,-137.937714L106.247498,-137.937714"/>
    <path transform="matrix(1,0,0,-1,-51.747498,-140.937714)" style="stroke:#000000;stroke-width:0.05mm;fill:none" d="M93.6492,-105.365097L94.247498,-105.437714"/>
    <path transform="matrix(1,0,0,-1,-51.747498,-140.937714)" style="stroke:#000000;stroke-width:0.05mm;fill:none" d="M104.726097,-49.879604L105.176903,-49.708607"/>
    <path transform="matrix(1,0,0,-1,-51.747498,-140.937714)" style="stroke:#000000;stroke-width:0.05mm;fill:none" d="M99.247498,-129.937714L73.028915,-107.937714"/>
    <path transform="matrix(1,0,0,-1,-51.747498,-140.937714)" style="stroke:#000000;stroke-width:0.05mm;fill:none" d="M105.893501,-126.801613L105.5737,-126.440697"/>
    <path transform="matrix(1,0,0,-1,-51.747498,-140.937714)" style="stroke:#000000;stroke-width:0.05mm;fill:none" d="M95.905296,-104.809013L96.305,-104.35791"/>
    <path transform="matrix(1,0,0,-1,-51.747498,-140.937714)" style="stroke:#000000;stroke-width:0.05mm;fill:none" d="M102.377502,-128.646912L102.601501,-129.073807"/>
    <path transform="matrix(1,0,0,-1,-51.747498,-140.937714)" style="stroke:#000000;stroke-width:0.05mm;fill:none" d="M91.765701,-102.636414L91.765701,-103.239014"/>
    <path transform="matrix(1,0,0,-1,-51.747498,-140.937714)" style="stroke:#000000;stroke-width:0.05mm;fill:none" d="M105.893501,-129.073807L106.1175,-128.646912"/>
</svg>
