<?xml version="1.0"?>
<!DOCTYPE svg PUBLIC "-//W3C//DTD SVG 1.1//EN" "http://www.w3.org/Graphics/SVG/1.1/DTD/svg11.dtd">
<svg width="49.98mm" height="81.07016994374948mm" viewBox="0 0 49.98 81.07016994374948" xmlns="http://www.w3.org/2000/svg" version="1.1">
<g id="Sketch003" transform="translate(0.405260,118.620170) scale(1,-1)">
<path id="Sketch003_w0000"  d="M 0.08474 45.04 L 0.08474 41.04 L 3.08474 41.04 L 3.08474 38.04 L 46.08474 38.04 L 46.08474 41.04 L 49.08474 41.04 L 49.08474 45.04 L 46.08474 45.04 L 46.08474 48.04 L 30.08474 48.04 L 30.08474 98.04 A 7.5 7.5 0 0 1 27.5837 110.702L 27.583719383505112 115.70159851517805 A 2.5 2.5 0 0 1 22.5858 115.702L 22.585760616494852 110.70159851517805 A 7.5 7.5 0 0 1 20.0847 98.04L 20.08474 48.04 L 3.08474 48.04 L 3.08474 45.04 L 0.08474 45.04 " stroke="#000000" stroke-width="0.35 px" style="stroke-width:0.35;stroke-miterlimit:4;stroke-dasharray:none;stroke-linecap:square;fill:none;fill-opacity:1;fill-rule: evenodd"/>
<title>b'LaserCutArmBaseSketch'</title>
</g>
</svg>