<?xml version="1.0" encoding="UTF-8"?>
<svg xmlns="http://www.w3.org/2000/svg" xmlns:xlink="http://www.w3.org/1999/xlink" width="25.000mm" height="25.000mm" viewBox="1.500000 -25.500000 25.000000 25.000000">
    <path transform="matrix(1,0,0,-1,-134.5,-118)" style="stroke:#000000;stroke-width:0.05mm;fill:none" d="M159.240097,-109.111092L137.759903,-109.111092"/>
    <path transform="matrix(1,0,0,-1,-134.5,-118)" style="stroke:#000000;stroke-width:0.05mm;fill:none" d="M157.909744,-111.611092L139.090256,-111.611092"/>
    <path transform="matrix(1,0,0,-1,-134.5,-118)" style="stroke:#000000;stroke-width:0.05mm;fill:none" d="M159.233994,-100.873169L137.766006,-100.873169"/>
    <path transform="matrix(1,0,0,-1,-134.5,-118)" style="stroke:#000000;stroke-width:0.05mm;fill:none" d="M157.898682,-98.373169L139.101318,-98.373169"/>
    <path transform="matrix(1,0,0,-1,-134.5,-118)" style="stroke:#000000;stroke-width:0.05mm;fill:none" d="M150.325867,-93.645897L148.5,-93.5"/>
    <path transform="matrix(1,0,0,-1,-134.5,-118)" style="stroke:#000000;stroke-width:0.05mm;fill:none" d="M152.105392,-94.079803L150.325867,-93.645897"/>
    <path transform="matrix(1,0,0,-1,-134.5,-118)" style="stroke:#000000;stroke-width:0.05mm;fill:none" d="M153.793457,-94.790703L152.105392,-94.079803"/>
    <path transform="matrix(1,0,0,-1,-134.5,-118)" style="stroke:#000000;stroke-width:0.05mm;fill:none" d="M155.347244,-95.760666L153.793457,-94.790703"/>
    <path transform="matrix(1,0,0,-1,-134.5,-118)" style="stroke:#000000;stroke-width:0.05mm;fill:none" d="M156.727325,-96.964996L155.347244,-95.760666"/>
    <path transform="matrix(1,0,0,-1,-134.5,-118)" style="stroke:#000000;stroke-width:0.05mm;fill:none" d="M157.898682,-98.373169L156.727325,-96.964996"/>
    <path transform="matrix(1,0,0,-1,-134.5,-118)" style="stroke:#000000;stroke-width:0.05mm;fill:none" d="M158.412003,-99.168861L157.898682,-98.373169"/>
    <path transform="matrix(1,0,0,-1,-134.5,-118)" style="stroke:#000000;stroke-width:0.05mm;fill:none" d="M158.858093,-100.004082L158.412003,-99.168861"/>
    <path transform="matrix(1,0,0,-1,-134.5,-118)" style="stroke:#000000;stroke-width:0.05mm;fill:none" d="M159.233994,-100.873169L158.858093,-100.004082"/>
    <path transform="matrix(1,0,0,-1,-134.5,-118)" style="stroke:#000000;stroke-width:0.05mm;fill:none" d="M159.806107,-102.897202L159.233994,-100.873169"/>
    <path transform="matrix(1,0,0,-1,-134.5,-118)" style="stroke:#000000;stroke-width:0.05mm;fill:none" d="M160,-104.99157L159.806107,-102.897202"/>
    <path transform="matrix(1,0,0,-1,-134.5,-118)" style="stroke:#000000;stroke-width:0.05mm;fill:none" d="M159.809204,-107.086227L160,-104.99157"/>
    <path transform="matrix(1,0,0,-1,-134.5,-118)" style="stroke:#000000;stroke-width:0.05mm;fill:none" d="M159.240097,-109.111092L159.809204,-107.086227"/>
    <path transform="matrix(1,0,0,-1,-134.5,-118)" style="stroke:#000000;stroke-width:0.05mm;fill:none" d="M158.865799,-109.980019L159.240097,-109.111092"/>
    <path transform="matrix(1,0,0,-1,-134.5,-118)" style="stroke:#000000;stroke-width:0.05mm;fill:none" d="M158.421341,-110.815239L158.865799,-109.980019"/>
    <path transform="matrix(1,0,0,-1,-134.5,-118)" style="stroke:#000000;stroke-width:0.05mm;fill:none" d="M157.909744,-111.611092L158.421341,-110.815239"/>
    <path transform="matrix(1,0,0,-1,-134.5,-118)" style="stroke:#000000;stroke-width:0.05mm;fill:none" d="M156.621155,-113.142303L157.909744,-111.611092"/>
    <path transform="matrix(1,0,0,-1,-134.5,-118)" style="stroke:#000000;stroke-width:0.05mm;fill:none" d="M155.086594,-114.426918L156.621155,-113.142303"/>
    <path transform="matrix(1,0,0,-1,-134.5,-118)" style="stroke:#000000;stroke-width:0.05mm;fill:none" d="M153.352585,-115.426003L155.086594,-114.426918"/>
    <path transform="matrix(1,0,0,-1,-134.5,-118)" style="stroke:#000000;stroke-width:0.05mm;fill:none" d="M151.471603,-116.109398L153.352585,-115.426003"/>
    <path transform="matrix(1,0,0,-1,-134.5,-118)" style="stroke:#000000;stroke-width:0.05mm;fill:none" d="M149.500641,-116.456398L151.471603,-116.109398"/>
    <path transform="matrix(1,0,0,-1,-134.5,-118)" style="stroke:#000000;stroke-width:0.05mm;fill:none" d="M147.499359,-116.456398L149.500641,-116.456398"/>
    <path transform="matrix(1,0,0,-1,-134.5,-118)" style="stroke:#000000;stroke-width:0.05mm;fill:none" d="M145.528397,-116.109398L147.499359,-116.456398"/>
    <path transform="matrix(1,0,0,-1,-134.5,-118)" style="stroke:#000000;stroke-width:0.05mm;fill:none" d="M143.647415,-115.426003L145.528397,-116.109398"/>
    <path transform="matrix(1,0,0,-1,-134.5,-118)" style="stroke:#000000;stroke-width:0.05mm;fill:none" d="M141.913406,-114.426918L143.647415,-115.426003"/>
    <path transform="matrix(1,0,0,-1,-134.5,-118)" style="stroke:#000000;stroke-width:0.05mm;fill:none" d="M140.378845,-113.142303L141.913406,-114.426918"/>
    <path transform="matrix(1,0,0,-1,-134.5,-118)" style="stroke:#000000;stroke-width:0.05mm;fill:none" d="M139.090256,-111.611092L140.378845,-113.142303"/>
    <path transform="matrix(1,0,0,-1,-134.5,-118)" style="stroke:#000000;stroke-width:0.05mm;fill:none" d="M138.578659,-110.815239L139.090256,-111.611092"/>
    <path transform="matrix(1,0,0,-1,-134.5,-118)" style="stroke:#000000;stroke-width:0.05mm;fill:none" d="M138.134201,-109.980019L138.578659,-110.815239"/>
    <path transform="matrix(1,0,0,-1,-134.5,-118)" style="stroke:#000000;stroke-width:0.05mm;fill:none" d="M137.759903,-109.111092L138.134201,-109.980019"/>
    <path transform="matrix(1,0,0,-1,-134.5,-118)" style="stroke:#000000;stroke-width:0.05mm;fill:none" d="M137.190796,-107.086227L137.759903,-109.111092"/>
    <path transform="matrix(1,0,0,-1,-134.5,-118)" style="stroke:#000000;stroke-width:0.05mm;fill:none" d="M137,-104.99157L137.190796,-107.086227"/>
    <path transform="matrix(1,0,0,-1,-134.5,-118)" style="stroke:#000000;stroke-width:0.05mm;fill:none" d="M137.193893,-102.897202L137,-104.99157"/>
    <path transform="matrix(1,0,0,-1,-134.5,-118)" style="stroke:#000000;stroke-width:0.05mm;fill:none" d="M137.766006,-100.873169L137.193893,-102.897202"/>
    <path transform="matrix(1,0,0,-1,-134.5,-118)" style="stroke:#000000;stroke-width:0.05mm;fill:none" d="M138.141907,-100.004082L137.766006,-100.873169"/>
    <path transform="matrix(1,0,0,-1,-134.5,-118)" style="stroke:#000000;stroke-width:0.05mm;fill:none" d="M138.587997,-99.168861L138.141907,-100.004082"/>
    <path transform="matrix(1,0,0,-1,-134.5,-118)" style="stroke:#000000;stroke-width:0.05mm;fill:none" d="M139.101318,-98.373169L138.587997,-99.168861"/>
    <path transform="matrix(1,0,0,-1,-134.5,-118)" style="stroke:#000000;stroke-width:0.05mm;fill:none" d="M140.272675,-96.964996L139.101318,-98.373169"/>
    <path transform="matrix(1,0,0,-1,-134.5,-118)" style="stroke:#000000;stroke-width:0.05mm;fill:none" d="M141.652756,-95.760666L140.272675,-96.964996"/>
    <path transform="matrix(1,0,0,-1,-134.5,-118)" style="stroke:#000000;stroke-width:0.05mm;fill:none" d="M143.206543,-94.790703L141.652756,-95.760666"/>
    <path transform="matrix(1,0,0,-1,-134.5,-118)" style="stroke:#000000;stroke-width:0.05mm;fill:none" d="M144.894608,-94.079803L143.206543,-94.790703"/>
    <path transform="matrix(1,0,0,-1,-134.5,-118)" style="stroke:#000000;stroke-width:0.05mm;fill:none" d="M146.674133,-93.645897L144.894608,-94.079803"/>
    <path transform="matrix(1,0,0,-1,-134.5,-118)" style="stroke:#000000;stroke-width:0.05mm;fill:none" d="M148.5,-93.5L146.674133,-93.645897"/>
    <path transform="matrix(1,0,0,-1,-134.5,-118)" style="stroke:#000000;stroke-width:0.05mm;fill:none" d="M148.021362,-103.058121L148.5,-103"/>
    <path transform="matrix(1,0,0,-1,-134.5,-118)" style="stroke:#000000;stroke-width:0.05mm;fill:none" d="M147.570557,-103.229088L148.021362,-103.058121"/>
    <path transform="matrix(1,0,0,-1,-134.5,-118)" style="stroke:#000000;stroke-width:0.05mm;fill:none" d="M147.173752,-103.502983L147.570557,-103.229088"/>
    <path transform="matrix(1,0,0,-1,-134.5,-118)" style="stroke:#000000;stroke-width:0.05mm;fill:none" d="M146.854034,-103.863869L147.173752,-103.502983"/>
    <path transform="matrix(1,0,0,-1,-134.5,-118)" style="stroke:#000000;stroke-width:0.05mm;fill:none" d="M146.629974,-104.290787L146.854034,-103.863869"/>
    <path transform="matrix(1,0,0,-1,-134.5,-118)" style="stroke:#000000;stroke-width:0.05mm;fill:none" d="M146.514587,-104.758926L146.629974,-104.290787"/>
    <path transform="matrix(1,0,0,-1,-134.5,-118)" style="stroke:#000000;stroke-width:0.05mm;fill:none" d="M146.514587,-105.241074L146.514587,-104.758926"/>
    <path transform="matrix(1,0,0,-1,-134.5,-118)" style="stroke:#000000;stroke-width:0.05mm;fill:none" d="M146.629974,-105.709213L146.514587,-105.241074"/>
    <path transform="matrix(1,0,0,-1,-134.5,-118)" style="stroke:#000000;stroke-width:0.05mm;fill:none" d="M146.854034,-106.136131L146.629974,-105.709213"/>
    <path transform="matrix(1,0,0,-1,-134.5,-118)" style="stroke:#000000;stroke-width:0.05mm;fill:none" d="M147.173752,-106.497017L146.854034,-106.136131"/>
    <path transform="matrix(1,0,0,-1,-134.5,-118)" style="stroke:#000000;stroke-width:0.05mm;fill:none" d="M147.570557,-106.770912L147.173752,-106.497017"/>
    <path transform="matrix(1,0,0,-1,-134.5,-118)" style="stroke:#000000;stroke-width:0.05mm;fill:none" d="M148.021362,-106.941879L147.570557,-106.770912"/>
    <path transform="matrix(1,0,0,-1,-134.5,-118)" style="stroke:#000000;stroke-width:0.05mm;fill:none" d="M148.5,-107L148.021362,-106.941879"/>
    <path transform="matrix(1,0,0,-1,-134.5,-118)" style="stroke:#000000;stroke-width:0.05mm;fill:none" d="M148.978638,-106.941879L148.5,-107"/>
    <path transform="matrix(1,0,0,-1,-134.5,-118)" style="stroke:#000000;stroke-width:0.05mm;fill:none" d="M149.429443,-106.770912L148.978638,-106.941879"/>
    <path transform="matrix(1,0,0,-1,-134.5,-118)" style="stroke:#000000;stroke-width:0.05mm;fill:none" d="M149.826248,-106.497017L149.429443,-106.770912"/>
    <path transform="matrix(1,0,0,-1,-134.5,-118)" style="stroke:#000000;stroke-width:0.05mm;fill:none" d="M150.145966,-106.136131L149.826248,-106.497017"/>
    <path transform="matrix(1,0,0,-1,-134.5,-118)" style="stroke:#000000;stroke-width:0.05mm;fill:none" d="M150.370026,-105.709213L150.145966,-106.136131"/>
    <path transform="matrix(1,0,0,-1,-134.5,-118)" style="stroke:#000000;stroke-width:0.05mm;fill:none" d="M150.485413,-105.241074L150.370026,-105.709213"/>
    <path transform="matrix(1,0,0,-1,-134.5,-118)" style="stroke:#000000;stroke-width:0.05mm;fill:none" d="M150.485413,-104.758926L150.485413,-105.241074"/>
    <path transform="matrix(1,0,0,-1,-134.5,-118)" style="stroke:#000000;stroke-width:0.05mm;fill:none" d="M150.370026,-104.290787L150.485413,-104.758926"/>
    <path transform="matrix(1,0,0,-1,-134.5,-118)" style="stroke:#000000;stroke-width:0.05mm;fill:none" d="M150.145966,-103.863869L150.370026,-104.290787"/>
    <path transform="matrix(1,0,0,-1,-134.5,-118)" style="stroke:#000000;stroke-width:0.05mm;fill:none" d="M149.826248,-103.502983L150.145966,-103.863869"/>
    <path transform="matrix(1,0,0,-1,-134.5,-118)" style="stroke:#000000;stroke-width:0.05mm;fill:none" d="M149.429443,-103.229088L149.826248,-103.502983"/>
    <path transform="matrix(1,0,0,-1,-134.5,-118)" style="stroke:#000000;stroke-width:0.05mm;fill:none" d="M148.978638,-103.058121L149.429443,-103.229088"/>
    <path transform="matrix(1,0,0,-1,-134.5,-118)" style="stroke:#000000;stroke-width:0.05mm;fill:none" d="M148.5,-103L148.978638,-103.058121"/>
    <path transform="matrix(1,0,0,-1,-134.5,-118)" style="stroke:#000000;stroke-width:0.05mm;fill:none" d="M150.670593,-92.689903L148.5,-92.5"/>
    <path transform="matrix(1,0,0,-1,-134.5,-118)" style="stroke:#000000;stroke-width:0.05mm;fill:none" d="M152.775253,-93.253799L150.670593,-92.689903"/>
    <path transform="matrix(1,0,0,-1,-134.5,-118)" style="stroke:#000000;stroke-width:0.05mm;fill:none" d="M154.75,-94.174698L152.775253,-93.253799"/>
    <path transform="matrix(1,0,0,-1,-134.5,-118)" style="stroke:#000000;stroke-width:0.05mm;fill:none" d="M156.534851,-95.424438L154.75,-94.174698"/>
    <path transform="matrix(1,0,0,-1,-134.5,-118)" style="stroke:#000000;stroke-width:0.05mm;fill:none" d="M158.075562,-96.965149L156.534851,-95.424438"/>
    <path transform="matrix(1,0,0,-1,-134.5,-118)" style="stroke:#000000;stroke-width:0.05mm;fill:none" d="M159.325302,-98.75L158.075562,-96.965149"/>
    <path transform="matrix(1,0,0,-1,-134.5,-118)" style="stroke:#000000;stroke-width:0.05mm;fill:none" d="M160.246201,-100.724747L159.325302,-98.75"/>
    <path transform="matrix(1,0,0,-1,-134.5,-118)" style="stroke:#000000;stroke-width:0.05mm;fill:none" d="M160.810104,-102.829399L160.246201,-100.724747"/>
    <path transform="matrix(1,0,0,-1,-134.5,-118)" style="stroke:#000000;stroke-width:0.05mm;fill:none" d="M161,-105L160.810104,-102.829399"/>
    <path transform="matrix(1,0,0,-1,-134.5,-118)" style="stroke:#000000;stroke-width:0.05mm;fill:none" d="M160.810104,-107.170601L161,-105"/>
    <path transform="matrix(1,0,0,-1,-134.5,-118)" style="stroke:#000000;stroke-width:0.05mm;fill:none" d="M160.246201,-109.275253L160.810104,-107.170601"/>
    <path transform="matrix(1,0,0,-1,-134.5,-118)" style="stroke:#000000;stroke-width:0.05mm;fill:none" d="M159.325302,-111.25L160.246201,-109.275253"/>
    <path transform="matrix(1,0,0,-1,-134.5,-118)" style="stroke:#000000;stroke-width:0.05mm;fill:none" d="M158.075562,-113.034851L159.325302,-111.25"/>
    <path transform="matrix(1,0,0,-1,-134.5,-118)" style="stroke:#000000;stroke-width:0.05mm;fill:none" d="M156.534851,-114.575562L158.075562,-113.034851"/>
    <path transform="matrix(1,0,0,-1,-134.5,-118)" style="stroke:#000000;stroke-width:0.05mm;fill:none" d="M154.75,-115.825302L156.534851,-114.575562"/>
    <path transform="matrix(1,0,0,-1,-134.5,-118)" style="stroke:#000000;stroke-width:0.05mm;fill:none" d="M152.775253,-116.746201L154.75,-115.825302"/>
    <path transform="matrix(1,0,0,-1,-134.5,-118)" style="stroke:#000000;stroke-width:0.05mm;fill:none" d="M150.670593,-117.310097L152.775253,-116.746201"/>
    <path transform="matrix(1,0,0,-1,-134.5,-118)" style="stroke:#000000;stroke-width:0.05mm;fill:none" d="M148.5,-117.5L150.670593,-117.310097"/>
    <path transform="matrix(1,0,0,-1,-134.5,-118)" style="stroke:#000000;stroke-width:0.05mm;fill:none" d="M146.329407,-117.310097L148.5,-117.5"/>
    <path transform="matrix(1,0,0,-1,-134.5,-118)" style="stroke:#000000;stroke-width:0.05mm;fill:none" d="M144.224747,-116.746201L146.329407,-117.310097"/>
    <path transform="matrix(1,0,0,-1,-134.5,-118)" style="stroke:#000000;stroke-width:0.05mm;fill:none" d="M142.25,-115.825302L144.224747,-116.746201"/>
    <path transform="matrix(1,0,0,-1,-134.5,-118)" style="stroke:#000000;stroke-width:0.05mm;fill:none" d="M140.465149,-114.575562L142.25,-115.825302"/>
    <path transform="matrix(1,0,0,-1,-134.5,-118)" style="stroke:#000000;stroke-width:0.05mm;fill:none" d="M138.924438,-113.034851L140.465149,-114.575562"/>
    <path transform="matrix(1,0,0,-1,-134.5,-118)" style="stroke:#000000;stroke-width:0.05mm;fill:none" d="M137.674698,-111.25L138.924438,-113.034851"/>
    <path transform="matrix(1,0,0,-1,-134.5,-118)" style="stroke:#000000;stroke-width:0.05mm;fill:none" d="M136.753799,-109.275253L137.674698,-111.25"/>
    <path transform="matrix(1,0,0,-1,-134.5,-118)" style="stroke:#000000;stroke-width:0.05mm;fill:none" d="M136.189896,-107.170601L136.753799,-109.275253"/>
    <path transform="matrix(1,0,0,-1,-134.5,-118)" style="stroke:#000000;stroke-width:0.05mm;fill:none" d="M136,-105L136.189896,-107.170601"/>
    <path transform="matrix(1,0,0,-1,-134.5,-118)" style="stroke:#000000;stroke-width:0.05mm;fill:none" d="M136.189896,-102.829399L136,-105"/>
    <path transform="matrix(1,0,0,-1,-134.5,-118)" style="stroke:#000000;stroke-width:0.05mm;fill:none" d="M136.753799,-100.724747L136.189896,-102.829399"/>
    <path transform="matrix(1,0,0,-1,-134.5,-118)" style="stroke:#000000;stroke-width:0.05mm;fill:none" d="M137.674698,-98.75L136.753799,-100.724747"/>
    <path transform="matrix(1,0,0,-1,-134.5,-118)" style="stroke:#000000;stroke-width:0.05mm;fill:none" d="M138.924438,-96.965149L137.674698,-98.75"/>
    <path transform="matrix(1,0,0,-1,-134.5,-118)" style="stroke:#000000;stroke-width:0.05mm;fill:none" d="M140.465149,-95.424438L138.924438,-96.965149"/>
    <path transform="matrix(1,0,0,-1,-134.5,-118)" style="stroke:#000000;stroke-width:0.05mm;fill:none" d="M142.25,-94.174698L140.465149,-95.424438"/>
    <path transform="matrix(1,0,0,-1,-134.5,-118)" style="stroke:#000000;stroke-width:0.05mm;fill:none" d="M144.224747,-93.253799L142.25,-94.174698"/>
    <path transform="matrix(1,0,0,-1,-134.5,-118)" style="stroke:#000000;stroke-width:0.05mm;fill:none" d="M146.329407,-92.689903L144.224747,-93.253799"/>
    <path transform="matrix(1,0,0,-1,-134.5,-118)" style="stroke:#000000;stroke-width:0.05mm;fill:none" d="M148.5,-92.5L146.329407,-92.689903"/>
</svg>
