<?xml version="1.0"?>
<!DOCTYPE svg PUBLIC "-//W3C//DTD SVG 1.1//EN" "http://www.w3.org/Graphics/SVG/1.1/DTD/svg11.dtd">
<svg width="70.5157378178mm" height="42.9002037708mm" viewBox="0 0 70.5157378178 42.9002037708" xmlns="http://www.w3.org/2000/svg" version="1.1">
<g id="Sketch009" transform="translate(0.691331,7.116313) scale(1,-1)">
<path id="Sketch009_w0000"  d="M 5.0 -28.0925596713 L 1.1640892083e-15 -28.0925596713 L 1.44e-15 -35.0925596713 L 28.0 -35.0925596713 L 28.0 -6.09255967131 L 65.4797759275 0.516136055603 L 64.4378868615 6.42498257368 L 28.0 1e-15 L 5.00000001814e-16 1e-15 L 1e-15 -7.0 L 5.0 -7.0 L 5.0 -28.0925596713 L 5.0 -7.0 " stroke="#191919" stroke-width="0.35 px" style="stroke-width:0.35;stroke-miterlimit:4;stroke-dasharray:none;fill:none;fill-rule: evenodd "/>
<path id="Sketch009_w0001"  d="M 10.0 -1.8 L 10.0 -4.79 L 10.0 -4.8 L 22.0 -4.8 L 22.0 -4.79 L 22.0 -1.8 L 10.0 -1.8 L 10.0 -1.79 L 22.0 -1.79 L 22.0 -1.8 M 10.0 -4.79 L 10.0 -4.8 L 22.0 -4.8 L 22.0 -4.79 L 10.0 -4.79 " stroke="#191919" stroke-width="0.35 px" style="stroke-width:0.35;stroke-miterlimit:4;stroke-dasharray:none;fill:none;fill-rule: evenodd "/>
<path id="Sketch009_w0002"  d="M 28.0 -4.6 L 28.0 -2.0 L 25.1172060106 -2.0 L 25.0 -2.0 L 25.0 -2.1872393658 M 25.0 -2.1872393658 L 25.0 -4.1191186342 L 25.0 -4.6 L 25.3704376614 -4.6 M 25.3704376614 -4.6 L 26.751274 -5.153179 M 26.751274 -5.153179 L 25.1172060106 -2.0 M 25.1172060106 -2.0 L 25.0 -2.1872393658 L 25.0 -4.1191186342 M 25.0 -4.1191186342 L 25.3704376614 -4.6 L 28.0 -4.6 L 28.0 -4.71544766349 " stroke="#191919" stroke-width="0.35 px" style="stroke-width:0.35;stroke-miterlimit:4;stroke-dasharray:none;fill:none;fill-rule: evenodd "/>
<path id="Sketch009_w0003"  d="M 53.3239639101 -0.0797767080925 L 53.329384 -0.078821 L 52.808439467 2.87560225904 L 52.8030193771 2.87464655094 L 53.3239639101 -0.0797767080925 L 40.5268832108 -2.33624730967 L 40.0059386778 0.618175949367 L 52.8030193771 2.87464655094 M 40.0059386778 0.618175949367 L 40.0005185879 0.617220241274 L 40.5214631209 -2.33720301776 L 40.5268832108 -2.33624730967 " stroke="#191919" stroke-width="0.35 px" style="stroke-width:0.35;stroke-miterlimit:4;stroke-dasharray:none;fill:none;fill-rule: evenodd "/>
<path id="Sketch009_w0005"  d="M 10.0 -30.29 L 22.0 -30.29 L 22.0 -33.29 L 10.0 -33.29 L 10.0 -30.29 " stroke="#191919" stroke-width="0.35 px" style="stroke-width:0.35;stroke-miterlimit:4;stroke-dasharray:none;fill:none;fill-rule: evenodd "/>
<path id="Sketch009_w0006"  d="M 66.6188685757 2.26447369041 L 66.9614582662 2.32488149616 L 67.2797368641 2.38100260034 L 67.5734601318 2.4327939373 L 67.8424026748 2.48021576389 L 68.0863581147 2.52323169004 L 68.3051392473 2.56180870658 L 68.4985781865 2.59591721068 L 68.666526493 2.62553102848 L 68.8088552882 2.65062743522 L 68.9254553534 2.67118717266 L 69.016237213 2.68719446387 L 69.0811312039 2.69863702534 L 69.1200875281 2.70550607638 L 69.133076292 2.70779634589 L 68.612131759 5.66221960492 L 68.5991429951 5.65992933542 L 68.5601866709 5.65306028438 L 68.49529268 5.64161772291 L 68.4045108204 5.6256104317 L 68.2879107552 5.60505069426 L 68.14558196 5.57995428752 L 67.9776336535 5.55034046972 L 67.7841947143 5.51623196562 L 67.5654135817 5.47765494907 L 67.3214581418 5.43463902293 L 67.0525155988 5.38721719633 L 66.7587923311 5.33542585938 L 66.4405137332 5.27930475519 L 66.0979240427 5.21889694945 L 66.6188685757 2.26447369041 L 65.2151404294 2.01695854463 M 66.0979240427 5.21889694945 L 64.6941958964 4.97138180367 " stroke="#191919" stroke-width="0.35 px" style="stroke-width:0.35;stroke-miterlimit:4;stroke-dasharray:none;fill:none;fill-rule: evenodd "/>
<title>Sketch009</title>
</g>
</svg>