<?xml version="1.0"?>
<!DOCTYPE svg PUBLIC "-//W3C//DTD SVG 1.1//EN" "http://www.w3.org/Graphics/SVG/1.1/DTD/svg11.dtd">
<svg width="255.0mm" height="79.0mm" viewBox="0 0 255.0 79.0" xmlns="http://www.w3.org/2000/svg" version="1.1">
<g id="Clone2D" transform="translate(252.500000,272.500000) scale(1,-1)">
<path id="Clone2D_w0000"  d="M -200.0 196.0 L -150.0 196.0 L -150.0 200.0 L -100.0 200.0 L -100.0 196.0 L -50.0 196.0 L -50.0 200.0 L -4.0 200.0 L -4.0 214.0 L 0.0 214.0 L 0.0 228.0 L -4.0 228.0 L -4.0 242.0 L 0.0 242.0 L 0.0 256.0 L -4.0 256.0 L -4.0 270.0 L -246.0 270.0 L -246.0 256.0 L -250.0 256.0 L -250.0 242.0 L -246.0 242.0 L -246.0 228.0 L -250.0 228.0 L -250.0 214.0 L -246.0 214.0 L -246.0 200.0 L -200.0 200.0 L -200.0 196.0 " stroke="#000000" stroke-width="0.35 px" style="stroke-width:0.35;stroke-miterlimit:4;stroke-dasharray:none;fill:none;fill-rule: evenodd "/>
<title>BackWallSketch (2D)</title>
</g>
</svg>