<?xml version="1.0"?>
<!DOCTYPE svg PUBLIC "-//W3C//DTD SVG 1.1//EN" "http://www.w3.org/Graphics/SVG/1.1/DTD/svg11.dtd">
<svg width="255.0mm" height="78.0mm" viewBox="0 0 255.0 78.0" xmlns="http://www.w3.org/2000/svg" version="1.1">
<g id="Clone2D" transform="translate(252.500000,75.500000) scale(1,-1)">
<path id="Clone2D_w0000"  d="M -200.0 -1.94289029309e-16 L -150.0 -1.94289029309e-16 L -150.0 3.0 L -100.0 3.0 L -100.0 8.32667268469e-17 L -50.0 1.66533453694e-16 L -50.0 3.0 L -3.0 3.0 L -3.0 17.0 L 4.16333634234e-17 17.0 L 8.32667268469e-17 31.0 L -3.0 31.0 L -3.0 45.0 L -9.71445146547e-17 45.0 L -1.94289029309e-16 59.0 L -3.0 59.0 L -3.0 73.0 L -247.0 73.0 L -247.0 59.0 L -250.0 59.0 L -250.0 45.0 L -247.0 45.0 L -247.0 31.0 L -250.0 31.0 L -250.0 17.0 L -247.0 17.0 L -247.0 3.0 L -200.0 3.0 L -200.0 -1.94289029309e-16 " stroke="#000000" stroke-width="0.35 px" style="stroke-width:0.35;stroke-miterlimit:4;stroke-dasharray:none;fill:none;fill-rule: evenodd "/>
<title>BackWallSketch (2D)</title>
</g>
</svg>