<?xml version="1.0"?>
<!DOCTYPE svg PUBLIC "-//W3C//DTD SVG 1.1//EN" "http://www.w3.org/Graphics/SVG/1.1/DTD/svg11.dtd">
<svg width="255.0mm" height="205.0mm" viewBox="0 0 255.0 205.0" xmlns="http://www.w3.org/2000/svg" version="1.1">
<g id="Sketch" transform="translate(2.500000,202.500000) scale(1,-1)">
<path id="Sketch_w0000"  d="M 0.0 0.0 L 50.0 0.0 L 50.0 4.0 L 100.0 4.0 L 100.0 4.07660016855e-16 L 150.0 3.71230823859e-16 L 150.0 4.0 L 200.0 4.0 L 200.0 7.77156117238e-16 L 250.0 6.66133814775e-16 L 250.0 40.0 L 246.0 40.0 L 246.0 80.0 L 250.0 80.0 L 250.0 120.0 L 246.0 120.0 L 246.0 160.0 L 250.0 160.0 L 250.0 200.0 L 200.0 200.0 L 200.0 196.0 L 150.0 196.0 L 150.0 200.0 L 100.0 200.0 L 100.0 196.0 L 50.0 196.0 L 50.0 200.0 L 1.75826053246e-16 200.0 L 1.75826053246e-16 160.0 L 4.0 160.0 L 4.0 120.0 L 0.0 120.0 L 0.0 80.0 L 4.0 80.0 L 4.0 40.0 L 0.0 40.0 L 0.0 0.0 " stroke="#000000" stroke-width="0.35 px" style="stroke-width:0.35;stroke-miterlimit:4;stroke-dasharray:none;fill:none;fill-rule: evenodd "/>
<title>BaseSketch</title>
</g>
</svg>