<?xml version="1.0"?>
<!DOCTYPE svg PUBLIC "-//W3C//DTD SVG 1.1//EN" "http://www.w3.org/Graphics/SVG/1.1/DTD/svg11.dtd">
<svg width="204.0mm" height="145.829172362mm" viewBox="0 0 204.0 145.829172362" xmlns="http://www.w3.org/2000/svg" version="1.1">
<g id="Clone2D" transform="translate(199.000000,143.829172) scale(1,-1)">
<path id="Clone2D_w0000"  d="M -197.0 3.0 L -157.0 3.0 L -157.0 1.11022302463e-16 L -117.0 2.22044604925e-16 L -117.0 3.0 L -77.0 3.0 L -77.0 -8.32667268469e-17 L -37.0 -1.66533453694e-16 L -37.0 3.0 L 3.0 3.0 L 3.0 10.0 L 0.0 10.0 L 0.0 16.0 L 3.0 16.0 L 3.0 23.0 L -98.7017546853 141.829172362 L -118.361403748 128.06333789 L -116.640674439 125.605881757 L -136.300323502 111.840047284 L -138.021052811 114.297503417 L -157.680701874 100.531668945 L -155.959972565 98.074212812 L -175.619621628 84.3083783396 L -177.340350937 86.7658344724 L -197.0 73.0 L -197.0 59.0 L -194.0 59.0 L -194.0 45.0 L -197.0 45.0 L -197.0 31.0 L -194.0 31.0 L -194.0 17.0 L -197.0 17.0 L -197.0 3.0 " stroke="#000000" stroke-width="0.35 px" style="stroke-width:0.35;stroke-miterlimit:4;stroke-dasharray:none;fill:none;fill-rule: evenodd "/>
<title>LeftWallSketch (2D)</title>
</g>
</svg>