<?xml version="1.0"?>
<!DOCTYPE svg PUBLIC "-//W3C//DTD SVG 1.1//EN" "http://www.w3.org/Graphics/SVG/1.1/DTD/svg11.dtd">
<svg width="204.0mm" height="146.829172362mm" viewBox="0 0 204.0 146.829172362" xmlns="http://www.w3.org/2000/svg" version="1.1">
<g id="Clone2D" transform="translate(198.000000,144.829172) scale(1,-1)">
<path id="Clone2D_w0000"  d="M -196.0 4.0 L -156.0 4.0 L -156.0 0.0 L -116.0 0.0 L -116.0 4.0 L -76.0 4.0 L -76.0 0.0 L -36.0 0.0 L -36.0 4.0 L 4.0 4.0 L 4.0 11.0 L 0.0 11.0 L 0.0 17.0 L 4.0 17.0 L 4.0 24.0 L -97.7017546853 142.829172362 L -117.361403748 129.06333789 L -115.067098003 125.786729713 L -134.726747066 112.02089524 L -137.021052811 115.297503417 L -156.680701874 101.531668945 L -154.386396129 98.2550607677 L -174.046045192 84.4892262953 L -176.340350937 87.7658344724 L -196.0 74.0 L -196.0 60.0 L -192.0 60.0 L -192.0 46.0 L -196.0 46.0 L -196.0 32.0 L -192.0 32.0 L -192.0 18.0 L -196.0 18.0 L -196.0 4.0 " stroke="#000000" stroke-width="0.35 px" style="stroke-width:0.35;stroke-miterlimit:4;stroke-dasharray:none;fill:none;fill-rule: evenodd "/>
<title>LeftWallSketch (2D)</title>
</g>
</svg>