<?xml version="1.0" encoding="UTF-8"?>
<svg xmlns="http://www.w3.org/2000/svg" xmlns:xlink="http://www.w3.org/1999/xlink" width="41.518mm" height="65.480mm" viewBox="15.241203 -84.913239 41.517586 65.479797">
    <path transform="matrix(1,0,0,-1,-78.999817,-202.449432)" style="stroke:#000000;stroke-width:0.05mm;fill:none" d="M100.666,-183.015991L107.666,-183.015991"/>
    <path transform="matrix(1,0,0,-1,-78.999817,-202.449432)" style="stroke:#000000;stroke-width:0.05mm;fill:none" d="M100.666,-155.015991L100.666,-183.015991"/>
    <path transform="matrix(1,0,0,-1,-78.999817,-202.449432)" style="stroke:#000000;stroke-width:0.05mm;fill:none" d="M107.666,-183.015991L107.666,-178.015991"/>
    <path transform="matrix(1,0,0,-1,-78.999817,-202.449432)" style="stroke:#000000;stroke-width:0.05mm;fill:none" d="M100.666,-155.015991L94.24102,-118.578094"/>
    <path transform="matrix(1,0,0,-1,-78.999817,-202.449432)" style="stroke:#000000;stroke-width:0.05mm;fill:none" d="M107.666,-178.015991L128.758606,-178.015991"/>
    <path transform="matrix(1,0,0,-1,-78.999817,-202.449432)" style="stroke:#000000;stroke-width:0.05mm;fill:none" d="M94.24102,-118.578094L100.149864,-117.536194"/>
    <path transform="matrix(1,0,0,-1,-78.999817,-202.449432)" style="stroke:#000000;stroke-width:0.05mm;fill:none" d="M128.758606,-178.015991L128.758606,-183.015991"/>
    <path transform="matrix(1,0,0,-1,-78.999817,-202.449432)" style="stroke:#000000;stroke-width:0.05mm;fill:none" d="M100.149864,-117.536194L106.75856,-155.015991"/>
    <path transform="matrix(1,0,0,-1,-78.999817,-202.449432)" style="stroke:#000000;stroke-width:0.05mm;fill:none" d="M128.758606,-183.015991L135.758606,-183.015991"/>
    <path transform="matrix(1,0,0,-1,-78.999817,-202.449432)" style="stroke:#000000;stroke-width:0.05mm;fill:none" d="M135.758606,-155.015991L106.75856,-155.015991"/>
    <path transform="matrix(1,0,0,-1,-78.999817,-202.449432)" style="stroke:#000000;stroke-width:0.05mm;fill:none" d="M135.758606,-183.015991L135.758606,-155.015991"/>
    <path transform="matrix(1,0,0,-1,-78.999817,-202.449432)" style="stroke:#000000;stroke-width:0.05mm;fill:none" d="M105.466003,-161.015991L105.456001,-161.015991"/>
    <path transform="matrix(1,0,0,-1,-78.999817,-202.449432)" style="stroke:#000000;stroke-width:0.05mm;fill:none" d="M105.466003,-173.015991L105.466003,-161.015991"/>
    <path transform="matrix(1,0,0,-1,-78.999817,-202.449432)" style="stroke:#000000;stroke-width:0.05mm;fill:none" d="M105.456001,-161.015991L102.465996,-161.015991"/>
    <path transform="matrix(1,0,0,-1,-78.999817,-202.449432)" style="stroke:#000000;stroke-width:0.05mm;fill:none" d="M105.456001,-173.015991L105.466003,-173.015991"/>
    <path transform="matrix(1,0,0,-1,-78.999817,-202.449432)" style="stroke:#000000;stroke-width:0.05mm;fill:none" d="M102.456001,-161.015991L102.465996,-161.015991"/>
    <path transform="matrix(1,0,0,-1,-78.999817,-202.449432)" style="stroke:#000000;stroke-width:0.05mm;fill:none" d="M102.466003,-173.015991L105.456001,-173.015991"/>
    <path transform="matrix(1,0,0,-1,-78.999817,-202.449432)" style="stroke:#000000;stroke-width:0.05mm;fill:none" d="M102.456001,-173.015991L102.456001,-161.015991"/>
    <path transform="matrix(1,0,0,-1,-78.999817,-202.449432)" style="stroke:#000000;stroke-width:0.05mm;fill:none" d="M102.456001,-173.015991L102.466003,-173.015991"/>
    <path transform="matrix(1,0,0,-1,-78.999817,-202.449432)" style="stroke:#000000;stroke-width:0.05mm;fill:none" d="M105.819183,-156.264694C105.81916,-155.316925,105.153938,-154.499313,104.225998,-154.306534C103.298058,-154.113754,102.362213,-154.59874,101.984695,-155.468063C101.607178,-156.337387,101.891647,-157.352325,102.666,-157.898788"/>
    <path transform="matrix(1,0,0,-1,-78.999817,-202.449432)" style="stroke:#000000;stroke-width:0.05mm;fill:none" d="M105.265999,-157.645599C105.621086,-157.273544,105.819199,-156.778992,105.819183,-156.264694"/>
    <path transform="matrix(1,0,0,-1,-78.999817,-202.449432)" style="stroke:#000000;stroke-width:0.05mm;fill:none" d="M102.853241,-158.015991C103.454498,-158.347626,104.183853,-158.347626,104.785118,-158.015991"/>
    <path transform="matrix(1,0,0,-1,-78.999817,-202.449432)" style="stroke:#000000;stroke-width:0.05mm;fill:none" d="M97.790398,-130.207596L97.791351,-130.212982"/>
    <path transform="matrix(1,0,0,-1,-78.999817,-202.449432)" style="stroke:#000000;stroke-width:0.05mm;fill:none" d="M97.791351,-130.212982L100.047821,-143.010086"/>
    <path transform="matrix(1,0,0,-1,-78.999817,-202.449432)" style="stroke:#000000;stroke-width:0.05mm;fill:none" d="M100.047821,-143.010086L100.048782,-143.015488"/>
    <path transform="matrix(1,0,0,-1,-78.999817,-202.449432)" style="stroke:#000000;stroke-width:0.05mm;fill:none" d="M100.048782,-143.015488L103.003197,-142.494492"/>
    <path transform="matrix(1,0,0,-1,-78.999817,-202.449432)" style="stroke:#000000;stroke-width:0.05mm;fill:none" d="M103.002251,-142.48909L103.003197,-142.494492"/>
    <path transform="matrix(1,0,0,-1,-78.999817,-202.449432)" style="stroke:#000000;stroke-width:0.05mm;fill:none" d="M100.745773,-129.691986L103.002251,-142.48909"/>
    <path transform="matrix(1,0,0,-1,-78.999817,-202.449432)" style="stroke:#000000;stroke-width:0.05mm;fill:none" d="M100.74482,-129.686584L100.745773,-129.691986"/>
    <path transform="matrix(1,0,0,-1,-78.999817,-202.449432)" style="stroke:#000000;stroke-width:0.05mm;fill:none" d="M97.790398,-130.207596L100.74482,-129.686584"/>
    <path transform="matrix(1,0,0,-1,-78.999817,-202.449432)" style="stroke:#000000;stroke-width:0.05mm;fill:none" d="M107.666,-173.015991L107.666,-161.015991"/>
    <path transform="matrix(1,0,0,-1,-78.999817,-202.449432)" style="stroke:#000000;stroke-width:0.05mm;fill:none" d="M128.755997,-173.015991L107.666,-173.015991"/>
    <path transform="matrix(1,0,0,-1,-78.999817,-202.449432)" style="stroke:#000000;stroke-width:0.05mm;fill:none" d="M107.666,-161.015991L128.755997,-161.015991"/>
    <path transform="matrix(1,0,0,-1,-78.999817,-202.449432)" style="stroke:#000000;stroke-width:0.05mm;fill:none" d="M128.755997,-161.015991L128.755997,-173.015991"/>
    <path transform="matrix(1,0,0,-1,-78.999817,-202.449432)" style="stroke:#000000;stroke-width:0.05mm;fill:none" d="M130.955994,-173.015991L130.955994,-161.015991"/>
    <path transform="matrix(1,0,0,-1,-78.999817,-202.449432)" style="stroke:#000000;stroke-width:0.05mm;fill:none" d="M133.955994,-173.015991L130.955994,-173.015991"/>
    <path transform="matrix(1,0,0,-1,-78.999817,-202.449432)" style="stroke:#000000;stroke-width:0.05mm;fill:none" d="M130.955994,-161.015991L133.955994,-161.015991"/>
    <path transform="matrix(1,0,0,-1,-78.999817,-202.449432)" style="stroke:#000000;stroke-width:0.05mm;fill:none" d="M133.955994,-161.015991L133.955994,-173.015991"/>
    <path transform="matrix(1,0,0,-1,-78.999817,-202.449432)" style="stroke:#000000;stroke-width:0.05mm;fill:none" d="M105.456001,-173.015991L105.456001,-161.015991"/>
    <path transform="matrix(1,0,0,-1,-78.999817,-202.449432)" style="stroke:#000000;stroke-width:0.05mm;fill:none" d="M102.465996,-161.015991L102.466003,-173.015991"/>
    <path transform="matrix(1,0,0,-1,-78.999817,-202.449432)" style="stroke:#000000;stroke-width:0.05mm;fill:none" d="M102.666,-157.898788C102.726204,-157.941284,102.788712,-157.980408,102.853241,-158.015991"/>
    <path transform="matrix(1,0,0,-1,-78.999817,-202.449432)" style="stroke:#000000;stroke-width:0.05mm;fill:none" d="M104.785118,-158.015991C104.963326,-157.917709,105.125488,-157.792801,105.265999,-157.645599"/>
    <path transform="matrix(1,0,0,-1,-78.999817,-202.449432)" style="stroke:#000000;stroke-width:0.05mm;fill:none" d="M103.002251,-142.48909L100.047821,-143.010086"/>
    <path transform="matrix(1,0,0,-1,-78.999817,-202.449432)" style="stroke:#000000;stroke-width:0.05mm;fill:none" d="M97.791351,-130.212982L100.745773,-129.691986"/>
    <path transform="matrix(1,0,0,-1,-78.999817,-202.449432)" style="stroke:#000000;stroke-width:0.05mm;fill:none" d="M105.456001,-173.015991L105.466003,-173.015991"/>
    <path transform="matrix(1,0,0,-1,-78.999817,-202.449432)" style="stroke:#000000;stroke-width:0.05mm;fill:none" d="M105.466003,-173.015991L105.466003,-161.015991"/>
    <path transform="matrix(1,0,0,-1,-78.999817,-202.449432)" style="stroke:#000000;stroke-width:0.05mm;fill:none" d="M105.466003,-161.015991L105.456001,-161.015991"/>
    <path transform="matrix(1,0,0,-1,-78.999817,-202.449432)" style="stroke:#000000;stroke-width:0.05mm;fill:none" d="M107.666,-178.015991L128.758606,-178.015991"/>
    <path transform="matrix(1,0,0,-1,-78.999817,-202.449432)" style="stroke:#000000;stroke-width:0.05mm;fill:none" d="M107.666,-173.015991L107.666,-161.015991"/>
    <path transform="matrix(1,0,0,-1,-78.999817,-202.449432)" style="stroke:#000000;stroke-width:0.05mm;fill:none" d="M128.755997,-173.015991L107.666,-173.015991"/>
    <path transform="matrix(1,0,0,-1,-78.999817,-202.449432)" style="stroke:#000000;stroke-width:0.05mm;fill:none" d="M107.666,-161.015991L128.755997,-161.015991"/>
    <path transform="matrix(1,0,0,-1,-78.999817,-202.449432)" style="stroke:#000000;stroke-width:0.05mm;fill:none" d="M128.755997,-161.015991L128.755997,-173.015991"/>
</svg>
