<?xml version="1.0" encoding="UTF-8"?>
<svg xmlns="http://www.w3.org/2000/svg" xmlns:xlink="http://www.w3.org/1999/xlink" width="35.887mm" height="38.000mm" viewBox="9.056381 -45.000000 35.887230 38.000000">
    <path transform="matrix(1,0,0,-1,-88.000015,-174.500198)" style="stroke:#000000;stroke-width:0.05mm;fill:none" d="M105.556419,-167.500198L105.556419,-164.500198"/>
    <path transform="matrix(1,0,0,-1,-88.000015,-174.500198)" style="stroke:#000000;stroke-width:0.05mm;fill:none" d="M130.056396,-132.500198L130.056396,-135.500198"/>
    <path transform="matrix(1,0,0,-1,-88.000015,-174.500198)" style="stroke:#000000;stroke-width:0.05mm;fill:none" d="M130.056396,-161.500198C133.906036,-153.261017,133.906036,-143.73938,130.056396,-135.500198"/>
    <path transform="matrix(1,0,0,-1,-88.000015,-174.500198)" style="stroke:#000000;stroke-width:0.05mm;fill:none" d="M118.556396,-129.500198L105.556396,-129.500198"/>
    <path transform="matrix(1,0,0,-1,-88.000015,-174.500198)" style="stroke:#000000;stroke-width:0.05mm;fill:none" d="M105.556396,-129.500198L105.556396,-132.500198"/>
    <path transform="matrix(1,0,0,-1,-88.000015,-174.500198)" style="stroke:#000000;stroke-width:0.05mm;fill:none" d="M105.556396,-132.500198L97.056396,-132.500198"/>
    <path transform="matrix(1,0,0,-1,-88.000015,-174.500198)" style="stroke:#000000;stroke-width:0.05mm;fill:none" d="M118.556396,-167.500198L105.556419,-167.500198"/>
    <path transform="matrix(1,0,0,-1,-88.000015,-174.500198)" style="stroke:#000000;stroke-width:0.05mm;fill:none" d="M130.056396,-132.500198L118.556396,-132.500198"/>
    <path transform="matrix(1,0,0,-1,-88.000015,-174.500198)" style="stroke:#000000;stroke-width:0.05mm;fill:none" d="M118.556396,-132.500198L118.556396,-129.500198"/>
    <path transform="matrix(1,0,0,-1,-88.000015,-174.500198)" style="stroke:#000000;stroke-width:0.05mm;fill:none" d="M118.556396,-164.500198L118.556396,-167.500198"/>
    <path transform="matrix(1,0,0,-1,-88.000015,-174.500198)" style="stroke:#000000;stroke-width:0.05mm;fill:none" d="M130.056396,-164.500198L118.556396,-164.500198"/>
    <path transform="matrix(1,0,0,-1,-88.000015,-174.500198)" style="stroke:#000000;stroke-width:0.05mm;fill:none" d="M97.056396,-132.500198L97.056396,-164.500198"/>
    <path transform="matrix(1,0,0,-1,-88.000015,-174.500198)" style="stroke:#000000;stroke-width:0.05mm;fill:none" d="M97.056396,-164.500198L105.556419,-164.500198"/>
    <path transform="matrix(1,0,0,-1,-88.000015,-174.500198)" style="stroke:#000000;stroke-width:0.05mm;fill:none" d="M130.056396,-161.500198L130.056396,-164.500198"/>
</svg>
